<svg xmlns="http://www.w3.org/2000/svg" width="800" height="450" viewBox="0 0 800 450">
  <defs>
    <linearGradient id="g" x1="0" y1="0" x2="1" y2="1">
      <stop offset="0" stop-color="#e6f7ff"/>
      <stop offset="0.5" stop-color="#f3e8ff"/>
      <stop offset="1" stop-color="#ffe9e0"/>
    </linearGradient>
  </defs>
  <rect width="800" height="450" fill="url(#g)"/>
  <circle cx="160" cy="225" r="72" fill="rgba(13,110,253,0.18)"/>
  <circle cx="640" cy="160" r="44" fill="rgba(111,66,193,0.18)"/>
  <circle cx="610" cy="310" r="56" fill="rgba(13,110,253,0.12)"/>
  <g fill="#0d6efd" opacity="0.9">
    <path d="M401 120c-64 0-116 52-116 116s52 116 116 116 116-52 116-116-52-116-116-116zm0 36a80 80 0 1 1 0 160 80 80 0 0 1 0-160z"/>
    <path d="M392 175h18v64h-18zM392 255h18v18h-18z"/>
  </g>
  <text x="400" y="410" text-anchor="middle" font-family="Inter, Arial, sans-serif" font-size="20" fill="#6c757d">
    Spare Part
  </text>
</svg>
